RobotoSerifDisplay-SuperWidth300 00m.ufo
<glyph name="exclam" format="2">
  <advance width="257"/>
  <unicode hex="0021"/>
  <outline>
    <contour>
      <point x="231.315" y="731.0" type="line"/>
      <point x="231.315" y="540.4686090225564"/>
      <point x="158.105" y="435.61285714285714"/>
      <point x="158.105" y="251.2" type="curve"/>
      <point x="98.88" y="251.2" type="line"/>
      <point x="98.88" y="435.61285714285714"/>
      <point x="25.669999999999998" y="539.4584586466166"/>
      <point x="25.669999999999998" y="731.0" type="curve"/>
    </contour>
    <component base="period" xOffset="-10.880000000000003"/>
  </outline>
</glyph>
<glyph name="two" format="2">
  <advance width="438"/>
  <unicode hex="0032"/>
  <outline>
    <contour>
      <point x="304" y="139" type="line" smooth="yes"/>
      <point x="357" y="139"/>
      <point x="375" y="143"/>
      <point x="380" y="185" type="curve" smooth="yes"/>
      <point x="388" y="254" type="line"/>
      <point x="423" y="254" type="line"/>
      <point x="423" y="0" type="line"/>
      <point x="15" y="0" type="line"/>
      <point x="15" y="111" type="line"/>
      <point x="146" y="207"/>
      <point x="219" y="280"/>
      <point x="219" y="461" type="curve" smooth="yes"/>
      <point x="219" y="530"/>
      <point x="204" y="572"/>
      <point x="161" y="572" type="curve" smooth="yes"/>
      <point x="145" y="572"/>
      <point x="135" y="567"/>
      <point x="128" y="558" type="curve"/>
      <point x="128" y="562"/>
      <point x="155" y="592"/>
      <point x="152" y="593" type="curve"/>
      <point x="152" y="430" type="line"/>
      <point x="22" y="430" type="line"/>
      <point x="22" y="569" type="line"/>
      <point x="50" y="596"/>
      <point x="121" y="618"/>
      <point x="202" y="618.0" type="curve" smooth="yes"/>
      <point x="344" y="618"/>
      <point x="414" y="551"/>
      <point x="414" y="447" type="curve" smooth="yes"/>
      <point x="414" y="276"/>
      <point x="226" y="188"/>
      <point x="90" y="118" type="curve"/>
      <point x="90" y="119"/>
      <point x="85" y="137"/>
      <point x="84" y="139" type="curve"/>
    </contour>
  </outline>
</glyph>
<glyph name="three" format="2">
  <advance width="462"/>
  <unicode hex="0033"/>
  <outline>
    <contour>
      <point x="218" y="-90" type="curve" smooth="yes"/>
      <point x="83" y="-90"/>
      <point x="30" y="-17"/>
      <point x="10" y="71" type="curve"/>
      <point x="51" y="90" type="line"/>
      <point x="70" y="24"/>
      <point x="96" y="-30"/>
      <point x="157" y="-30" type="curve" smooth="yes"/>
      <point x="199" y="-30"/>
      <point x="243" y="-5"/>
      <point x="243" y="117" type="curve" smooth="yes"/>
      <point x="243" y="211"/>
      <point x="226" y="261"/>
      <point x="156" y="261" type="curve" smooth="yes"/>
      <point x="136" y="261" type="line"/>
      <point x="136" y="306" type="line"/>
      <point x="162" y="306" type="line" smooth="yes"/>
      <point x="216" y="306"/>
      <point x="237" y="332"/>
      <point x="237" y="448" type="curve" smooth="yes"/>
      <point x="237" y="539"/>
      <point x="225" y="572"/>
      <point x="189" y="572" type="curve" smooth="yes"/>
      <point x="175" y="572"/>
      <point x="163" y="567"/>
      <point x="156" y="558" type="curve"/>
      <point x="156" y="562"/>
      <point x="183" y="592"/>
      <point x="180" y="593" type="curve"/>
      <point x="180" y="430" type="line"/>
      <point x="50" y="430" type="line"/>
      <point x="50" y="569" type="line"/>
      <point x="77" y="594"/>
      <point x="141" y="618"/>
      <point x="224" y="618" type="curve" smooth="yes"/>
      <point x="364" y="618"/>
      <point x="430" y="550"/>
      <point x="430" y="458" type="curve" smooth="yes"/>
      <point x="430" y="333"/>
      <point x="310" y="278"/>
      <point x="165" y="278" type="curve"/>
      <point x="214" y="292" type="line"/>
      <point x="212" y="275" type="line"/>
      <point x="180" y="289" type="line"/>
      <point x="361" y="289"/>
      <point x="442" y="217"/>
      <point x="442" y="99" type="curve" smooth="yes"/>
      <point x="442" y="-34"/>
      <point x="337" y="-90"/>
    </contour>
  </outline>
</glyph>
<glyph name="six" format="2">
  <advance width="481"/>
  <unicode hex="0036"/>
  <outline>
    <contour>
      <point x="413" y="705" type="line"/>
      <point x="305" y="663"/>
      <point x="219" y="572"/>
      <point x="219" y="247" type="curve" smooth="yes"/>
      <point x="219" y="84"/>
      <point x="223" y="35"/>
      <point x="245" y="35" type="curve" smooth="yes"/>
      <point x="269" y="35"/>
      <point x="272" y="91"/>
      <point x="272" y="240" type="curve" smooth="yes"/>
      <point x="272" y="362"/>
      <point x="263" y="394"/>
      <point x="240" y="394" type="curve" smooth="yes"/>
      <point x="220" y="394"/>
      <point x="210" y="370"/>
      <point x="196" y="330" type="curve"/>
      <point x="196" y="333"/>
      <point x="187" y="360"/>
      <point x="187" y="361" type="curve"/>
      <point x="199" y="409"/>
      <point x="232" y="453"/>
      <point x="311" y="453" type="curve" smooth="yes"/>
      <point x="416" y="453"/>
      <point x="471" y="376"/>
      <point x="471" y="245" type="curve" smooth="yes"/>
      <point x="471" y="82"/>
      <point x="371" y="-10"/>
      <point x="244" y="-10" type="curve" smooth="yes"/>
      <point x="99" y="-10"/>
      <point x="15" y="114"/>
      <point x="15" y="291" type="curve" smooth="yes"/>
      <point x="15" y="543"/>
      <point x="195" y="697"/>
      <point x="403" y="740" type="curve"/>
    </contour>
  </outline>
</glyph>
<glyph name="eight" format="2">
  <advance width="492"/>
  <unicode hex="0038"/>
  <outline>
    <contour>
      <point x="246" y="-10" type="curve" smooth="yes"/>
      <point x="379" y="-10"/>
      <point x="477" y="63"/>
      <point x="477" y="191" type="curve" smooth="yes"/>
      <point x="477" y="284"/>
      <point x="426" y="354"/>
      <point x="319" y="387" type="curve"/>
      <point x="338" y="369" type="line"/>
      <point x="337" y="386" type="line"/>
      <point x="319" y="366" type="line"/>
      <point x="416" y="399"/>
      <point x="460" y="462"/>
      <point x="460" y="542" type="curve" smooth="yes"/>
      <point x="460" y="656"/>
      <point x="366" y="720"/>
      <point x="246" y="720" type="curve" smooth="yes"/>
      <point x="125" y="720"/>
      <point x="32" y="656"/>
      <point x="32" y="542" type="curve" smooth="yes"/>
      <point x="32" y="462"/>
      <point x="80" y="399"/>
      <point x="177" y="366" type="curve"/>
      <point x="162" y="386" type="line"/>
      <point x="161" y="367" type="line"/>
      <point x="177" y="387" type="line"/>
      <point x="70" y="354"/>
      <point x="15" y="284"/>
      <point x="15" y="191" type="curve" smooth="yes"/>
      <point x="15" y="63"/>
      <point x="113" y="-10"/>
    </contour>
    <contour>
      <point x="246" y="35" type="curve" smooth="yes"/>
      <point x="222" y="35"/>
      <point x="218" y="79"/>
      <point x="218" y="198" type="curve" smooth="yes"/>
      <point x="218" y="313"/>
      <point x="221" y="354"/>
      <point x="246" y="354" type="curve" smooth="yes"/>
      <point x="271" y="354"/>
      <point x="274" y="313"/>
      <point x="274" y="198" type="curve" smooth="yes"/>
      <point x="274" y="79"/>
      <point x="270" y="35"/>
    </contour>
    <contour>
      <point x="246" y="398" type="curve" smooth="yes"/>
      <point x="223" y="398"/>
      <point x="219" y="433"/>
      <point x="219" y="534" type="curve" smooth="yes"/>
      <point x="219" y="641"/>
      <point x="223" y="675"/>
      <point x="246" y="675" type="curve" smooth="yes"/>
      <point x="269" y="675"/>
      <point x="273" y="641"/>
      <point x="273" y="534" type="curve" smooth="yes"/>
      <point x="273" y="433"/>
      <point x="269" y="398"/>
    </contour>
  </outline>
</glyph>
<glyph name="nine" format="2">
  <advance width="481"/>
  <unicode hex="0039"/>
  <outline>
    <contour>
      <point x="68" y="-72" type="line"/>
      <point x="176" y="-30"/>
      <point x="262" y="28"/>
      <point x="262" y="414" type="curve" smooth="yes"/>
      <point x="262" y="525"/>
      <point x="258" y="574"/>
      <point x="236" y="574" type="curve" smooth="yes"/>
      <point x="213" y="574"/>
      <point x="209" y="518"/>
      <point x="209" y="417" type="curve" smooth="yes"/>
      <point x="209" y="268"/>
      <point x="221" y="236"/>
      <point x="243" y="236" type="curve" smooth="yes"/>
      <point x="262" y="236"/>
      <point x="272" y="261"/>
      <point x="283" y="298" type="curve"/>
      <point x="283" y="295"/>
      <point x="290" y="268"/>
      <point x="290" y="267" type="curve"/>
      <point x="279" y="223"/>
      <point x="253" y="177"/>
      <point x="181" y="177" type="curve" smooth="yes"/>
      <point x="86" y="177"/>
      <point x="10" y="257"/>
      <point x="10" y="380" type="curve" smooth="yes"/>
      <point x="10" y="530"/>
      <point x="113" y="619"/>
      <point x="238" y="619.0" type="curve" smooth="yes"/>
      <point x="372" y="619"/>
      <point x="466" y="515"/>
      <point x="466" y="341" type="curve" smooth="yes"/>
      <point x="466" y="96"/>
      <point x="286" y="-64"/>
      <point x="78" y="-107" type="curve"/>
    </contour>
  </outline>
</glyph>
<glyph name="G" format="2">
  <advance width="564"/>
  <unicode hex="0047"/>
  <outline>
    <contour>
      <point x="521" y="288" type="line" smooth="yes"/>
      <point x="521" y="314"/>
      <point x="529" y="320"/>
      <point x="543" y="320" type="curve" smooth="yes"/>
      <point x="549" y="320" type="line"/>
      <point x="549" y="360" type="line"/>
      <point x="286" y="360" type="line"/>
      <point x="286" y="320" type="line"/>
      <point x="294" y="320" type="line" smooth="yes"/>
      <point x="310" y="320"/>
      <point x="321" y="314"/>
      <point x="321" y="288" type="curve" smooth="yes"/>
      <point x="321" y="59" type="line"/>
      <point x="318" y="48"/>
      <point x="308" y="37"/>
      <point x="291" y="37" type="curve" smooth="yes"/>
      <point x="250" y="37"/>
      <point x="230" y="99"/>
      <point x="230" y="355" type="curve" smooth="yes"/>
      <point x="230" y="611"/>
      <point x="265" y="662"/>
      <point x="334" y="662" type="curve" smooth="yes"/>
      <point x="408" y="662"/>
      <point x="438" y="604"/>
      <point x="451" y="508" type="curve"/>
      <point x="487" y="508" type="line"/>
      <point x="487" y="710" type="line"/>
      <point x="449" y="710" type="line"/>
      <point x="438" y="613" type="line"/>
      <point x="469" y="606" type="line"/>
      <point x="454" y="672"/>
      <point x="404" y="720"/>
      <point x="300" y="720" type="curve" smooth="yes"/>
      <point x="132" y="720"/>
      <point x="10" y="595"/>
      <point x="10" y="354" type="curve" smooth="yes"/>
      <point x="10" y="113"/>
      <point x="132" y="-10"/>
      <point x="289" y="-10.0" type="curve" smooth="yes"/>
      <point x="392" y="-10"/>
      <point x="488" y="43"/>
      <point x="521" y="95" type="curve"/>
    </contour>
  </outline>
</glyph>
<glyph name="O" format="2">
  <advance width="544"/>
  <unicode hex="004F"/>
  <outline>
    <contour>
      <point x="272" y="-10" type="curve" smooth="yes"/>
      <point x="433" y="-10"/>
      <point x="534" y="123"/>
      <point x="534" y="355" type="curve" smooth="yes"/>
      <point x="534" y="597"/>
      <point x="433" y="720"/>
      <point x="272" y="720" type="curve" smooth="yes"/>
      <point x="111" y="720"/>
      <point x="10" y="597"/>
      <point x="10" y="355" type="curve" smooth="yes"/>
      <point x="10" y="123"/>
      <point x="111" y="-10"/>
    </contour>
    <contour>
      <point x="272" y="35" type="curve" smooth="yes"/>
      <point x="236" y="35"/>
      <point x="230" y="99"/>
      <point x="230" y="355" type="curve" smooth="yes"/>
      <point x="230" y="611"/>
      <point x="236" y="675"/>
      <point x="272" y="675" type="curve" smooth="yes"/>
      <point x="308" y="675"/>
      <point x="314" y="611"/>
      <point x="314" y="355" type="curve" smooth="yes"/>
      <point x="314" y="99"/>
      <point x="308" y="35"/>
    </contour>
  </outline>
</glyph>
<glyph name="Q" format="2">
  <advance width="619"/>
  <unicode hex="0051"/>
  <outline>
    <contour>
      <point x="291.0" y="6" type="line"/>
      <point x="291.0" y="-116"/>
      <point x="341.0" y="-196"/>
      <point x="461.0" y="-196" type="curve" smooth="yes"/>
      <point x="502.0" y="-196"/>
      <point x="538.0" y="-187"/>
      <point x="559.0" y="-171" type="curve"/>
      <point x="559.0" y="-23" type="line"/>
      <point x="538.0" y="-37"/>
      <point x="502.0" y="-55"/>
      <point x="444.0" y="-55" type="curve" smooth="yes"/>
      <point x="388.0" y="-55"/>
      <point x="344.0" y="-38"/>
      <point x="340.0" y="9" type="curve"/>
    </contour>
    <contour>
      <point x="309" y="-10" type="curve" smooth="yes"/>
      <point x="470" y="-10"/>
      <point x="571" y="123"/>
      <point x="571" y="355" type="curve" smooth="yes"/>
      <point x="571" y="597"/>
      <point x="470" y="720"/>
      <point x="309" y="720" type="curve" smooth="yes"/>
      <point x="148" y="720"/>
      <point x="47" y="597"/>
      <point x="47" y="355" type="curve" smooth="yes"/>
      <point x="47" y="123"/>
      <point x="148" y="-10"/>
    </contour>
    <contour>
      <point x="309" y="35" type="curve" smooth="yes"/>
      <point x="273" y="35"/>
      <point x="267" y="99"/>
      <point x="267" y="355" type="curve" smooth="yes"/>
      <point x="267" y="611"/>
      <point x="273" y="675"/>
      <point x="309" y="675" type="curve" smooth="yes"/>
      <point x="345" y="675"/>
      <point x="351" y="611"/>
      <point x="351" y="355" type="curve" smooth="yes"/>
      <point x="351" y="99"/>
      <point x="345" y="35"/>
    </contour>
  </outline>
</glyph>
<glyph name="S" format="2">
  <advance width="494"/>
  <unicode hex="0053"/>
  <guideline x="327" y="447" angle="327.6926655451179" identifier="GfFPPCCcyd"/>
  <outline>
    <contour>
      <point x="221" y="35" type="curve" smooth="yes"/>
      <point x="156" y="35"/>
      <point x="101" y="85"/>
      <point x="67" y="205" type="curve"/>
      <point x="25" y="205" type="line"/>
      <point x="25" y="0" type="line"/>
      <point x="64" y="0" type="line"/>
      <point x="78" y="104" type="line"/>
      <point x="79" y="117"/>
      <point x="48" y="133"/>
      <point x="49" y="125" type="curve"/>
      <point x="89" y="32"/>
      <point x="152" y="-10"/>
      <point x="245" y="-10" type="curve" smooth="yes"/>
      <point x="375" y="-10"/>
      <point x="460" y="71"/>
      <point x="460" y="216" type="curve" smooth="yes"/>
      <point x="460" y="344"/>
      <point x="395" y="404"/>
      <point x="327" y="447" type="curve" smooth="yes"/>
      <point x="253" y="494"/>
      <point x="169" y="530"/>
      <point x="169" y="601" type="curve" smooth="yes"/>
      <point x="169" y="642"/>
      <point x="196" y="675"/>
      <point x="251" y="675" type="curve" smooth="yes"/>
      <point x="316" y="675"/>
      <point x="348" y="627"/>
      <point x="376" y="535" type="curve"/>
      <point x="413" y="535" type="line"/>
      <point x="413" y="710" type="line"/>
      <point x="374" y="710" type="line"/>
      <point x="360" y="608" type="line"/>
      <point x="359" y="597"/>
      <point x="397" y="595"/>
      <point x="396" y="605" type="curve"/>
      <point x="379" y="682"/>
      <point x="318" y="720"/>
      <point x="235" y="720" type="curve" smooth="yes"/>
      <point x="123" y="720"/>
      <point x="20" y="649"/>
      <point x="20" y="502" type="curve" smooth="yes"/>
      <point x="20" y="370"/>
      <point x="96" y="314"/>
      <point x="169" y="268" type="curve" smooth="yes"/>
      <point x="237" y="225"/>
      <point x="301" y="192"/>
      <point x="301" y="118" type="curve" smooth="yes"/>
      <point x="301" y="75"/>
      <point x="279" y="35"/>
    </contour>
  </outline>
</glyph>
<glyph name="a" format="2">
  <advance width="476"/>
  <unicode hex="0061"/>
  <outline>
    <contour>
      <point x="266" y="315" type="line"/>
      <point x="97" y="289"/>
      <point x="-4" y="246"/>
      <point x="-4" y="128" type="curve" smooth="yes"/>
      <point x="-4" y="40"/>
      <point x="51" y="-10.0"/>
      <point x="141" y="-10.0" type="curve" smooth="yes"/>
      <point x="207" y="-10.0"/>
      <point x="247" y="17"/>
      <point x="266" y="76" type="curve"/>
      <point x="266" y="146" type="line"/>
      <point x="260" y="91"/>
      <point x="247" y="67"/>
      <point x="227" y="67.0" type="curve" smooth="yes"/>
      <point x="207" y="67"/>
      <point x="192" y="91"/>
      <point x="192.0" y="152" type="curve" smooth="yes"/>
      <point x="192" y="228"/>
      <point x="215" y="261"/>
      <point x="266" y="275" type="curve"/>
    </contour>
    <contour>
      <point x="261" y="0.0" type="line"/>
      <point x="477" y="0.0" type="line"/>
      <point x="477" y="38.0" type="line"/>
      <point x="468" y="40" type="line" smooth="yes"/>
      <point x="457" y="42"/>
      <point x="455" y="47"/>
      <point x="455" y="65" type="curve" smooth="yes"/>
      <point x="455" y="369" type="line" smooth="yes"/>
      <point x="455" y="486"/>
      <point x="365" y="533"/>
      <point x="235" y="533.0" type="curve" smooth="yes"/>
      <point x="102" y="533"/>
      <point x="50" y="488.0"/>
      <point x="28" y="467.0" type="curve"/>
      <point x="28" y="358" type="line"/>
      <point x="178" y="358" type="line"/>
      <point x="178" y="498" type="line"/>
      <point x="171" y="498"/>
      <point x="148" y="481"/>
      <point x="149" y="471" type="curve"/>
      <point x="156" y="478"/>
      <point x="170" y="488.0"/>
      <point x="210" y="488.0" type="curve" smooth="yes"/>
      <point x="237" y="488"/>
      <point x="251" y="477"/>
      <point x="251" y="439.0" type="curve" smooth="yes"/>
      <point x="251" y="74" type="line"/>
      <point x="261" y="75" type="line"/>
    </contour>
  </outline>
</glyph>
<glyph name="s" format="2">
  <advance width="420"/>
  <unicode hex="0073"/>
  <guideline x="155" y="180" angle="329.03624346792645" identifier="G6NN5ZGWMQ"/>
  <outline>
    <contour>
      <point x="252.0" y="86" type="curve" smooth="yes"/>
      <point x="252" y="61"/>
      <point x="238" y="35"/>
      <point x="189" y="35" type="curve" smooth="yes"/>
      <point x="163" y="35"/>
      <point x="140" y="42"/>
      <point x="124" y="61" type="curve"/>
      <point x="126" y="40"/>
      <point x="142" y="34"/>
      <point x="155" y="22" type="curve"/>
      <point x="155" y="149" type="line"/>
      <point x="20" y="149" type="line"/>
      <point x="20" y="37" type="line"/>
      <point x="40" y="20"/>
      <point x="99" y="-10"/>
      <point x="195" y="-10" type="curve" smooth="yes"/>
      <point x="338" y="-10"/>
      <point x="410" y="56"/>
      <point x="410" y="162" type="curve" smooth="yes"/>
      <point x="410" y="250"/>
      <point x="363" y="297"/>
      <point x="309" y="329" type="curve" smooth="yes"/>
      <point x="246" y="367"/>
      <point x="180" y="390"/>
      <point x="180" y="442" type="curve" smooth="yes"/>
      <point x="180" y="466"/>
      <point x="194" y="488"/>
      <point x="238" y="488" type="curve" smooth="yes"/>
      <point x="259" y="488"/>
      <point x="276" y="483"/>
      <point x="285" y="475" type="curve"/>
      <point x="303" y="492"/>
      <point x="292" y="497"/>
      <point x="265" y="501" type="curve"/>
      <point x="265" y="389" type="line"/>
      <point x="390" y="389" type="line"/>
      <point x="390" y="493" type="line"/>
      <point x="376" y="504"/>
      <point x="329" y="533"/>
      <point x="238" y="533" type="curve" smooth="yes"/>
      <point x="105" y="533"/>
      <point x="27" y="471"/>
      <point x="27" y="361" type="curve" smooth="yes"/>
      <point x="27" y="260"/>
      <point x="94" y="217"/>
      <point x="155" y="180" type="curve" smooth="yes"/>
      <point x="208" y="148"/>
      <point x="252" y="129"/>
    </contour>
  </outline>
</glyph>
<glyph name="u" format="2">
  <advance width="521"/>
  <unicode hex="0075"/>
  <outline>
    <contour>
      <point x="233" y="523" type="line"/>
      <point x="5" y="523" type="line"/>
      <point x="5" y="485" type="line"/>
      <point x="11" y="483" type="line" smooth="yes"/>
      <point x="24" y="479"/>
      <point x="29" y="473"/>
      <point x="29" y="455" type="curve" smooth="yes"/>
      <point x="29" y="137.0" type="line" smooth="yes"/>
      <point x="29" y="36"/>
      <point x="83" y="-10"/>
      <point x="163" y="-10.0" type="curve" smooth="yes"/>
      <point x="231" y="-10.0"/>
      <point x="282" y="23"/>
      <point x="305" y="80" type="curve"/>
      <point x="305" y="158" type="line"/>
      <point x="291" y="97"/>
      <point x="275" y="78"/>
      <point x="255" y="78.0" type="curve" smooth="yes"/>
      <point x="242" y="78"/>
      <point x="233" y="86"/>
      <point x="233" y="113.0" type="curve" smooth="yes"/>
    </contour>
    <contour>
      <point x="492" y="523" type="line"/>
      <point x="264" y="523" type="line"/>
      <point x="264" y="485" type="line"/>
      <point x="270" y="483" type="line" smooth="yes"/>
      <point x="283" y="479"/>
      <point x="288" y="473"/>
      <point x="288" y="455" type="curve" smooth="yes"/>
      <point x="288" y="82" type="line"/>
      <point x="299.0" y="94" type="line"/>
      <point x="299.0" y="0.0" type="line"/>
      <point x="513" y="0.0" type="line"/>
      <point x="513" y="38.0" type="line"/>
      <point x="505" y="40" type="line" smooth="yes"/>
      <point x="494" y="43"/>
      <point x="492" y="47"/>
      <point x="492" y="65" type="curve" smooth="yes"/>
    </contour>
  </outline>
</glyph>
<glyph name="x" format="2">
  <advance width="450"/>
  <unicode hex="0078"/>
  <guideline x="243" y="476" angle="293.51905223251646" identifier="LZQ88i9CNX"/>
  <guideline x="366" y="471" angle="241.23082808843787" identifier="pQi2g715Yu"/>
  <guideline x="5" y="38" angle="90" identifier="NlLnvo8DN9"/>
  <guideline x="445" y="38" angle="90" identifier="yGPLos8zxZ"/>
  <outline>
    <contour>
      <point x="440" y="0" type="line"/>
      <point x="440" y="38" type="line"/>
      <point x="438" y="38" type="line"/>
      <point x="426" y="38"/>
      <point x="422" y="46"/>
      <point x="414" y="66" type="curve"/>
      <point x="314" y="331" type="line"/>
      <point x="306" y="340" type="line"/>
      <point x="251" y="476" type="line"/>
      <point x="251" y="483"/>
      <point x="264" y="485"/>
      <point x="274" y="485" type="curve" smooth="yes"/>
      <point x="276" y="485" type="line"/>
      <point x="276" y="523" type="line"/>
      <point x="20" y="523" type="line"/>
      <point x="20" y="485" type="line"/>
      <point x="22" y="485" type="line" smooth="yes"/>
      <point x="34" y="485"/>
      <point x="38" y="477"/>
      <point x="46" y="457" type="curve"/>
      <point x="141" y="216" type="line"/>
      <point x="149" y="207" type="line"/>
      <point x="209" y="47" type="line"/>
      <point x="209" y="40"/>
      <point x="196" y="38"/>
      <point x="186" y="38" type="curve" smooth="yes"/>
      <point x="184" y="38" type="line"/>
      <point x="184" y="0" type="line"/>
    </contour>
    <contour>
      <point x="10" y="0" type="line"/>
      <point x="113" y="0" type="line"/>
      <point x="113" y="38" type="line"/>
      <point x="110" y="38" type="line" smooth="yes"/>
      <point x="91" y="38"/>
      <point x="84" y="42"/>
      <point x="84" y="52" type="curve"/>
      <point x="199" y="262" type="line"/>
      <point x="167" y="300" type="line"/>
      <point x="45" y="76" type="line" smooth="yes"/>
      <point x="31" y="51"/>
      <point x="25" y="38"/>
      <point x="12" y="38" type="curve"/>
      <point x="10" y="38" type="line"/>
    </contour>
    <contour>
      <point x="288" y="251" type="line"/>
      <point x="395" y="447" type="line" smooth="yes"/>
      <point x="409" y="472"/>
      <point x="415" y="485"/>
      <point x="428" y="485" type="curve"/>
      <point x="430" y="485" type="line"/>
      <point x="430" y="523" type="line"/>
      <point x="327" y="523" type="line"/>
      <point x="327" y="485" type="line"/>
      <point x="330" y="485" type="line" smooth="yes"/>
      <point x="349" y="485"/>
      <point x="356" y="481"/>
      <point x="356" y="471" type="curve"/>
      <point x="256" y="289" type="line"/>
    </contour>
  </outline>
</glyph>
<glyph name="cent" format="2">
  <advance width="423"/>
  <unicode hex="00A2"/>
  <outline>
    <contour>
      <point x="269.395" y="67.2" type="curve" smooth="yes"/>
      <point x="218.96499999999997" y="67.2"/>
      <point x="188.88" y="119.44070175432"/>
      <point x="188.88" y="255.8" type="curve" smooth="yes"/>
      <point x="188.88" y="386.16571428568"/>
      <point x="195.355" y="446.4"/>
      <point x="251.83499999999998" y="446.4" type="curve" smooth="yes"/>
      <point x="289.315" y="446.4"/>
      <point x="296.24" y="428.6"/>
      <point x="301.91" y="411.0" type="curve"/>
      <point x="339.74037943111" y="400.64541512368"/>
      <point x="363.013112641165" y="443.44301243208"/>
      <point x="287.58" y="466.4" type="curve"/>
      <point x="287.58" y="334.6" type="line"/>
      <point x="404.26" y="334.6" type="line"/>
      <point x="404.26" y="468.6" type="line"/>
      <point x="385.59499999999997" y="489.4"/>
      <point x="341.33" y="524.8"/>
      <point x="239.76" y="524.8" type="curve" smooth="yes"/>
      <point x="105.275" y="524.8"/>
      <point x="11.995000000000005" y="424.0"/>
      <point x="11.995000000000005" y="255.8" type="curve" smooth="yes"/>
      <point x="11.995000000000005" y="85.6"/>
      <point x="109.875" y="-13.6"/>
      <point x="238.15" y="-13.6" type="curve" smooth="yes"/>
      <point x="335.89" y="-13.6"/>
      <point x="381.065" y="45.2"/>
      <point x="413.955" y="131.0" type="curve"/>
      <point x="353.03999999999996" y="173.6" type="line"/>
      <point x="335.28834423398" y="124.08566037952"/>
      <point x="309.78499999999997" y="67.2"/>
    </contour>
    <contour>
      <point x="198.70499999999998" y="623.0" type="line"/>
      <point x="198.70499999999998" y="477.6" type="line"/>
      <point x="217.565" y="462.4" type="line"/>
      <point x="217.565" y="48.2" type="line"/>
      <point x="198.70499999999998" y="33.400000000000006" type="line"/>
      <point x="198.70499999999998" y="-126.0" type="line"/>
      <point x="289.67" y="-126.0" type="line"/>
      <point x="289.67" y="23.6" type="line"/>
      <point x="270.81" y="36.2" type="line"/>
      <point x="270.81" y="469.2" type="line"/>
      <point x="289.67" y="483.8" type="line"/>
      <point x="289.67" y="623.0" type="line"/>
    </contour>
  </outline>
</glyph>
<glyph name="sterling" format="2">
  <advance width="423"/>
  <unicode hex="00A3"/>
  <outline>
    <contour>
      <point x="14.41" y="-10.600000000000001" type="line"/>
      <point x="165.535" y="16.4"/>
      <point x="244.53" y="137.6"/>
      <point x="244.53" y="257.8" type="curve" smooth="yes"/>
      <point x="244.53" y="381.62450160774"/>
      <point x="217.09" y="459.57704180064"/>
      <point x="217.09" y="544.2" type="curve" smooth="yes"/>
      <point x="217.09" y="602.58013513514"/>
      <point x="224.06" y="634.0"/>
      <point x="244.855" y="634.0" type="curve" smooth="yes"/>
      <point x="253.78" y="634.0"/>
      <point x="261.175" y="621.4"/>
      <point x="268.90500000000003" y="599.6" type="curve"/>
      <point x="294.595" y="607.0"/>
      <point x="290.835" y="636.8"/>
      <point x="255.26500000000001" y="637.2" type="curve"/>
      <point x="255.26500000000001" y="528.8" type="line"/>
      <point x="392.07" y="528.8" type="line"/>
      <point x="392.07" y="662.2" type="line"/>
      <point x="374.16499999999996" y="682.4"/>
      <point x="328.90999999999997" y="720.0"/>
      <point x="231.975" y="720.0" type="curve" smooth="yes"/>
      <point x="95.34" y="720.0"/>
      <point x="30.120000000000005" y="633.7755670103"/>
      <point x="30.120000000000005" y="528.2" type="curve" smooth="yes"/>
      <point x="30.120000000000005" y="400.37671924292"/>
      <point x="99.825" y="340.42555205048"/>
      <point x="99.825" y="228.6" type="curve" smooth="yes"/>
      <point x="99.825" y="159.6"/>
      <point x="68.59" y="118.4"/>
      <point x="14.41" y="96.4" type="curve"/>
    </contour>
    <contour>
      <point x="285.06" y="-10.0" type="curve"/>
      <point x="361.94" y="-10.0"/>
      <point x="403.18" y="92.0"/>
      <point x="425.40999999999997" y="198.8" type="curve"/>
      <point x="340.585" y="228.0" type="line"/>
      <point x="325.44" y="163.4"/>
      <point x="314.56" y="139.20000000000002"/>
      <point x="281.53" y="139.20000000000002" type="curve" smooth="yes"/>
      <point x="241.865" y="139.20000000000002"/>
      <point x="222.13" y="164.4"/>
      <point x="180.70499999999998" y="221.39999999999998" type="curve"/>
      <point x="149.505" y="212.4"/>
      <point x="115.31500000000001" y="156.8"/>
      <point x="116.96000000000001" y="135.2" type="curve"/>
      <point x="188.515" y="45.6"/>
      <point x="228.26" y="-10.0"/>
    </contour>
    <contour>
      <point x="14.41" y="394.0" type="line"/>
      <point x="14.41" y="298.0" type="line"/>
      <point x="339.835" y="298.0" type="line"/>
      <point x="339.835" y="394.0" type="line"/>
    </contour>
  </outline>
</glyph>
<glyph name="dieresis" format="2">
  <advance width="376.8"/>
  <unicode hex="00A8"/>
  <anchor x="188.4" y="526.0" name="_top"/>
  <outline>
    <contour>
      <point x="89.14" y="568.0" type="curve" smooth="yes"/>
      <point x="148.32" y="568.0"/>
      <point x="182.74" y="601.4"/>
      <point x="182.74" y="657.6" type="curve" smooth="yes"/>
      <point x="182.74" y="713.6"/>
      <point x="148.32" y="747.0"/>
      <point x="89.14" y="747.0" type="curve" smooth="yes"/>
      <point x="30.305" y="747.0"/>
      <point x="-5.264999999999986" y="713.6"/>
      <point x="-5.264999999999986" y="657.6" type="curve" smooth="yes"/>
      <point x="-5.264999999999986" y="600.6"/>
      <point x="30.305" y="568.0"/>
    </contour>
    <contour>
      <point x="288.015" y="568.0" type="curve" smooth="yes"/>
      <point x="348.345" y="568.0"/>
      <point x="382.765" y="601.4"/>
      <point x="382.765" y="657.6" type="curve" smooth="yes"/>
      <point x="382.765" y="713.6"/>
      <point x="348.345" y="747.0"/>
      <point x="288.015" y="747.0" type="curve" smooth="yes"/>
      <point x="229.18" y="747.0"/>
      <point x="193.61" y="713.6"/>
      <point x="193.61" y="657.6" type="curve" smooth="yes"/>
      <point x="193.61" y="600.6"/>
      <point x="229.18" y="568.0"/>
    </contour>
  </outline>
</glyph>
<glyph name="copyright" format="2">
  <advance width="650.265"/>
  <unicode hex="00A9"/>
  <outline>
    <contour>
      <point x="350.485" y="495.2" type="curve" smooth="yes"/>
      <point x="375.65999999999997" y="495.2"/>
      <point x="394.59" y="458.4"/>
      <point x="400.755" y="406.8" type="curve"/>
      <point x="457.635" y="406.8" type="line"/>
      <point x="457.635" y="550.4" type="line"/>
      <point x="408.69" y="550.4" type="line"/>
      <point x="404.63" y="448.6" type="line"/>
      <point x="409.92" y="439.0"/>
      <point x="413.44" y="444.6"/>
      <point x="434.945" y="425.4" type="curve"/>
      <point x="423.95013647640553" y="519.6009378378637"/>
      <point x="387.6436538461538" y="561.4"/>
      <point x="321.735" y="561.4" type="curve" smooth="yes"/>
      <point x="236.735" y="561.4"/>
      <point x="168.63" y="476.0"/>
      <point x="168.63" y="354.0" type="curve" smooth="yes"/>
      <point x="168.63" y="231.0"/>
      <point x="235.93" y="148.6"/>
      <point x="331.97" y="148.6" type="curve" smooth="yes"/>
      <point x="400.88" y="148.6"/>
      <point x="450.78" y="207.8"/>
      <point x="462.89" y="288.6" type="curve"/>
      <point x="416.74" y="314.8" type="line"/>
      <point x="408.275756416372" y="255.79623118860258"/>
      <point x="385.895" y="215.60000000000002"/>
      <point x="354.13" y="215.60000000000002" type="curve" smooth="yes"/>
      <point x="315.385" y="215.60000000000002"/>
      <point x="300.985" y="268.18551724137933"/>
      <point x="300.985" y="354.0" type="curve" smooth="yes"/>
      <point x="300.985" y="444.8197727272727"/>
      <point x="314.395" y="495.2"/>
    </contour>
    <contour>
      <point x="103.25999999999999" y="355.0" type="curve" smooth="yes"/>
      <point x="103.25999999999999" y="533.4"/>
      <point x="191.25" y="672.2"/>
      <point x="325.035" y="672.2" type="curve" smooth="yes"/>
      <point x="458.015" y="672.2"/>
      <point x="547.005" y="533.4"/>
      <point x="547.005" y="355.0" type="curve" smooth="yes"/>
      <point x="547.005" y="176.6"/>
      <point x="458.015" y="37.800000000000004"/>
      <point x="325.035" y="37.800000000000004" type="curve" smooth="yes"/>
      <point x="191.25" y="37.800000000000004"/>
      <point x="103.25999999999999" y="176.6"/>
    </contour>
    <contour>
      <point x="21.92" y="355.0" type="curve" smooth="yes"/>
      <point x="21.92" y="133.2"/>
      <point x="148.965" y="-37.6"/>
      <point x="325.035" y="-37.6" type="curve" smooth="yes"/>
      <point x="502.21" y="-37.6"/>
      <point x="629.15" y="133.2"/>
      <point x="629.15" y="355.0" type="curve" smooth="yes"/>
      <point x="629.15" y="576.8"/>
      <point x="502.21" y="747.6"/>
      <point x="325.035" y="747.6" type="curve" smooth="yes"/>
      <point x="148.965" y="747.6"/>
      <point x="21.92" y="576.8"/>
    </contour>
  </outline>
</glyph>
<glyph name="Eth" format="2">
  <advance width="629"/>
  <unicode hex="00D0"/>
  <outline>
    <contour>
      <point x="14.825000000000003" y="399.2" type="line"/>
      <point x="14.825000000000003" y="312.8" type="line"/>
      <point x="328.255" y="312.8" type="line"/>
      <point x="328.255" y="399.2" type="line"/>
    </contour>
    <component base="D" xOffset="-65.94"/>
  </outline>
</glyph>
<glyph name="multiply" format="2">
  <advance width="422.8"/>
  <unicode hex="00D7"/>
  <outline>
    <contour>
      <point x="111.495" y="556.6" type="line"/>
      <point x="35.17" y="479.4" type="line"/>
      <point x="302.875" y="123.4" type="line"/>
      <point x="379.35" y="200.6" type="line"/>
    </contour>
    <contour>
      <point x="302.875" y="556.6" type="line"/>
      <point x="35.019999999999996" y="200.6" type="line"/>
      <point x="111.495" y="123.4" type="line"/>
      <point x="379.305" y="479.4" type="line"/>
    </contour>
  </outline>
</glyph>
<glyph name="oslash" format="2">
  <advance width="511.88"/>
  <unicode hex="00F8"/>
  <anchor x="232.1" y="551.0" name="top"/>
  <outline>
    <contour>
      <point x="416.21" y="523.0" type="line"/>
      <point x="8.474999999999998" y="-15.0" type="line"/>
      <point x="95.325" y="-15.0" type="line"/>
      <point x="503.06" y="523.0" type="line"/>
    </contour>
    <contour>
      <point x="255.94" y="-13.6" type="curve" smooth="yes"/>
      <point x="408.365" y="-13.6"/>
      <point x="496.205" y="94.8"/>
      <point x="496.205" y="255.4" type="curve" smooth="yes"/>
      <point x="496.205" y="416.0"/>
      <point x="408.365" y="524.8"/>
      <point x="255.94" y="524.8" type="curve" smooth="yes"/>
      <point x="103.515" y="524.8"/>
      <point x="15.675000000000006" y="416.0"/>
      <point x="15.675000000000006" y="255.4" type="curve" smooth="yes"/>
      <point x="15.675000000000006" y="94.8"/>
      <point x="103.515" y="-13.6"/>
    </contour>
    <contour>
      <point x="252.14499999999998" y="68.80000000000001" type="curve" smooth="yes"/>
      <point x="220.11261194035" y="68.80000000000001"/>
      <point x="210.775" y="121.0"/>
      <point x="210.775" y="255.4" type="curve" smooth="yes"/>
      <point x="210.775" y="382.0"/>
      <point x="224.29770270273997" y="442.4"/>
      <point x="258.585" y="442.4" type="curve" smooth="yes"/>
      <point x="292.57625" y="442.4"/>
      <point x="301.105" y="390.0"/>
      <point x="301.105" y="255.4" type="curve" smooth="yes"/>
      <point x="301.105" y="129.0"/>
      <point x="287.5864" y="68.80000000000001"/>
    </contour>
  </outline>
</glyph>
<glyph name="Lslash" format="2">
  <advance width="500"/>
  <unicode hex="0141"/>
  <outline>
    <contour>
      <point x="2.405000000000001" y="181.6" type="line"/>
      <point x="-42.31" y="322.2" type="line"/>
      <point x="372.15" y="533.4" type="line"/>
      <point x="416.865" y="392.79999999999995" type="line"/>
    </contour>
    <component base="L" xOffset="-60.935"/>
  </outline>
</glyph>
<glyph name="Tbar" format="2">
  <advance width="587"/>
  <unicode hex="0166"/>
  <outline>
    <contour>
      <point x="76.03" y="355.6" type="line"/>
      <point x="76.03" y="269.2" type="line"/>
      <point x="511.395" y="269.2" type="line"/>
      <point x="511.395" y="355.6" type="line"/>
    </contour>
    <component base="T" xOffset="-84.525"/>
  </outline>
</glyph>
<glyph name="Oogonek" format="2">
  <advance width="619"/>
  <unicode hex="01EA"/>
  <outline>
    <contour>
      <point x="309.475" y="77.2" type="curve" smooth="yes"/>
      <point x="266.03499999999997" y="77.2"/>
      <point x="242.92999999999998" y="173.8"/>
      <point x="242.92999999999998" y="355.0" type="curve" smooth="yes"/>
      <point x="242.92999999999998" y="536.2"/>
      <point x="266.03499999999997" y="632.8"/>
      <point x="309.475" y="632.8" type="curve" smooth="yes"/>
      <point x="351.81" y="632.8"/>
      <point x="375.065" y="536.2"/>
      <point x="375.065" y="355.0" type="curve" smooth="yes"/>
      <point x="375.065" y="173.8"/>
      <point x="351.81" y="77.2"/>
    </contour>
    <contour>
      <point x="349.24" y="-227.0" type="curve" smooth="yes"/>
      <point x="421.345" y="-237.77111111114"/>
      <point x="457.445" y="-218.4"/>
      <point x="481.24" y="-180.0" type="curve"/>
      <point x="475.33000000000004" y="-180.0"/>
      <point x="430.815" y="-134.6"/>
      <point x="427.905" y="-129.2" type="curve"/>
      <point x="418.82" y="-136.4"/>
      <point x="405.975" y="-147.8"/>
      <point x="384.125" y="-147.8" type="curve" smooth="yes"/>
      <point x="366.03499999999997" y="-151.2"/>
      <point x="355.41999999999996" y="-143.6"/>
      <point x="358.375" y="-122.0" type="curve" smooth="yes"/>
      <point x="361.57" y="-57.2"/>
      <point x="452.995000000115" y="-49.875862068972"/>
      <point x="551.665" y="48.2" type="curve" smooth="yes"/>
      <point x="605.255" y="109.18952380952399"/>
      <point x="632.672607586945" y="193.21940675799"/>
      <point x="616.8399999999999" y="293.0" type="curve" smooth="yes"/>
      <point x="604.2859665451" y="484.17789545814003"/>
      <point x="463.79" y="621.77315789474"/>
      <point x="269.78499999999997" y="647.0" type="curve" smooth="yes"/>
      <point x="74.97500000000001" y="690.4"/>
      <point x="-42.07499999999999" y="604.8"/>
      <point x="-20.114999999999995" y="428.0" type="curve" smooth="yes"/>
      <point x="1.845000000000006" y="250.4"/>
      <point x="154.20499999999998" y="106.4"/>
      <point x="349.015" y="63.0" type="curve" smooth="yes"/>
      <point x="390.53" y="19.8"/>
      <point x="411.82" y="-4.4"/>
      <point x="426.085" y="5.2" type="curve"/>
      <point x="418.405" y="5.2"/>
      <point x="431.909181522705" y="29.192159808574"/>
      <point x="427.21500000000003" y="32.6" type="curve"/>
      <point x="278.865" y="0.6000000000000014"/>
      <point x="199.4" y="-35.8"/>
      <point x="199.4" y="-104.6" type="curve" smooth="yes"/>
      <point x="210.709560800285" y="-170.219110012306"/>
      <point x="272.995" y="-213.229361702126"/>
    </contour>
  </outline>
</glyph>
<glyph name="daggerdbl" format="2">
  <advance width="437.38"/>
  <unicode hex="2021"/>
  <outline>
    <contour>
      <point x="179.75" y="494.4" type="line"/>
      <point x="257.525" y="494.4" type="line"/>
      <point x="386.26" y="431.6" type="line"/>
      <point x="418.725" y="431.6" type="line"/>
      <point x="418.725" y="598.4" type="line"/>
      <point x="386.26" y="598.4" type="line"/>
      <point x="257.525" y="539.4" type="line"/>
      <point x="179.75" y="539.4" type="line"/>
      <point x="51.015" y="598.4" type="line"/>
      <point x="18.55" y="598.4" type="line"/>
      <point x="18.55" y="431.6" type="line"/>
      <point x="51.015" y="431.6" type="line"/>
    </contour>
    <contour>
      <point x="177.485" y="215.6" type="line"/>
      <point x="32.895" y="265.2" type="line"/>
      <point x="16.285" y="278.4" type="line"/>
      <point x="18.55" y="135.2" type="line"/>
      <point x="53.28" y="111.6" type="line"/>
      <point x="197.87" y="162.8" type="line"/>
      <point x="259.78999999999996" y="170.6" type="line"/>
      <point x="404.38" y="119.4" type="line"/>
      <point x="420.99" y="111.6" type="line"/>
      <point x="418.725" y="254.8" type="line"/>
      <point x="383.995" y="278.4" type="line"/>
      <point x="239.40499999999997" y="228.8" type="line"/>
    </contour>
    <contour>
      <point x="77.78999999999999" y="324.2" type="line"/>
      <point x="142.14499999999998" y="295.2"/>
      <point x="178.75" y="259.4"/>
      <point x="178.75" y="201.0" type="curve"/>
      <point x="178.75" y="140.8"/>
      <point x="102.94" y="68.4"/>
      <point x="102.94" y="33.0" type="curve" smooth="yes"/>
      <point x="102.94" y="0.0" type="line"/>
      <point x="334.33500000000004" y="0.0" type="line"/>
      <point x="334.33500000000004" y="33.0" type="line" smooth="yes"/>
      <point x="334.33500000000004" y="68.4"/>
      <point x="258.525" y="140.8"/>
      <point x="258.525" y="201.0" type="curve"/>
      <point x="258.525" y="259.4"/>
      <point x="295.235" y="295.2"/>
      <point x="359.48499999999996" y="324.2" type="curve"/>
      <point x="359.48499999999996" y="385.8" type="line"/>
      <point x="295.235" y="414.8"/>
      <point x="258.525" y="450.6"/>
      <point x="258.525" y="509.0" type="curve"/>
      <point x="258.525" y="569.2"/>
      <point x="334.33500000000004" y="641.6"/>
      <point x="334.33500000000004" y="677.0" type="curve" smooth="yes"/>
      <point x="334.33500000000004" y="710.0" type="line"/>
      <point x="102.94" y="710.0" type="line"/>
      <point x="102.94" y="677.0" type="line" smooth="yes"/>
      <point x="102.94" y="641.6"/>
      <point x="178.75" y="569.2"/>
      <point x="178.75" y="509.0" type="curve"/>
      <point x="178.75" y="450.6"/>
      <point x="142.14499999999998" y="414.8"/>
      <point x="77.78999999999999" y="385.8" type="curve"/>
    </contour>
  </outline>
</glyph>
<glyph name="uni25B5" format="2">
  <advance width="630"/>
  <unicode hex="25B5"/>
  <outline>
    <contour>
      <point x="15.1" y="0.0" type="line"/>
      <point x="614.5" y="0.0" type="line"/>
      <point x="314.8" y="715.0" type="line"/>
    </contour>
    <contour>
      <point x="63.7" y="38.0" type="line"/>
      <point x="63.7" y="26.0" type="line"/>
      <point x="323.0" y="652.0" type="line"/>
      <point x="306.6" y="652.0" type="line"/>
      <point x="564.6" y="30.0" type="line"/>
      <point x="566.6" y="38.0" type="line"/>
    </contour>
  </outline>
</glyph>
<glyph name="uni25B9" format="2">
  <advance width="432"/>
  <unicode hex="25B9"/>
  <outline>
    <contour>
      <point x="97.8" y="545.0" type="line"/>
      <point x="97.8" y="10.0" type="line"/>
      <point x="379.8" y="277.0" type="line"/>
    </contour>
    <contour>
      <point x="128.0" y="474.0" type="line"/>
      <point x="124.4" y="470.0" type="line"/>
      <point x="333.2" y="274.0" type="line"/>
      <point x="333.2" y="281.0" type="line"/>
      <point x="124.4" y="84.0" type="line"/>
      <point x="128.0" y="80.0" type="line"/>
    </contour>
  </outline>
</glyph>
<glyph name="uni25BF" format="2">
  <advance width="472"/>
  <unicode hex="25BF"/>
  <outline>
    <contour>
      <point x="437.9" y="464.0" type="line"/>
      <point x="33.8" y="464.0" type="line"/>
      <point x="235.7" y="91.0" type="line"/>
    </contour>
    <contour>
      <point x="384.4" y="426.0" type="line"/>
      <point x="381.1" y="431.0" type="line"/>
      <point x="233.4" y="155.0" type="line"/>
      <point x="238.3" y="155.0" type="line"/>
      <point x="89.6" y="431.0" type="line"/>
      <point x="87.0" y="426.0" type="line"/>
    </contour>
  </outline>
</glyph>
<glyph name="brokenbar.uc" format="2">
  <advance width="236.26"/>
  <outline>
    <contour>
      <point x="185.015" y="480.4" type="line"/>
      <point x="185.015" y="677.0" type="line"/>
      <point x="50.65" y="677.0" type="line"/>
      <point x="50.65" y="480.4" type="line"/>
    </contour>
    <contour>
      <point x="55.18" y="291.4" type="line"/>
      <point x="55.18" y="-35.2" type="line"/>
      <point x="180.485" y="-35.2" type="line"/>
      <point x="180.485" y="291.4" type="line"/>
    </contour>
  </outline>
</glyph>
<glyph name="cent.proportional" format="2">
  <advance width="462"/>
  <outline>
    <contour>
      <point x="288.59000000000003" y="67.2" type="curve" smooth="yes"/>
      <point x="227.475" y="67.2"/>
      <point x="195.54999999999998" y="117.0196491228"/>
      <point x="195.54999999999998" y="255.8" type="curve" smooth="yes"/>
      <point x="195.54999999999998" y="386.16571428568"/>
      <point x="204.77499999999998" y="446.4"/>
      <point x="272.42" y="446.4" type="curve" smooth="yes"/>
      <point x="317.59499999999997" y="446.4"/>
      <point x="328.555" y="426.2"/>
      <point x="334.225" y="407.8" type="curve"/>
      <point x="372.06491881427996" y="397.44261321775997"/>
      <point x="395.339929995165" y="443.44036351799997"/>
      <point x="319.895" y="466.4" type="curve"/>
      <point x="319.895" y="334.6" type="line"/>
      <point x="436.68" y="334.6" type="line"/>
      <point x="436.68" y="461.4" type="line"/>
      <point x="419.51" y="483.8"/>
      <point x="368.355" y="524.8"/>
      <point x="258.85" y="524.8" type="curve" smooth="yes"/>
      <point x="117.235" y="524.8"/>
      <point x="18.770000000000003" y="424.0"/>
      <point x="18.770000000000003" y="255.8" type="curve" smooth="yes"/>
      <point x="18.770000000000003" y="85.6"/>
      <point x="121.03" y="-13.6"/>
      <point x="257.24" y="-13.6" type="curve" smooth="yes"/>
      <point x="361.87" y="-13.6"/>
      <point x="413.38" y="44.4"/>
      <point x="446.375" y="131.0" type="curve"/>
      <point x="385.355" y="173.6" type="line"/>
      <point x="367.87235584639" y="123.24501683"/>
      <point x="338.065" y="67.2"/>
    </contour>
    <contour>
      <point x="217.795" y="623.0" type="line"/>
      <point x="217.795" y="477.6" type="line"/>
      <point x="236.65499999999997" y="462.4" type="line"/>
      <point x="236.65499999999997" y="48.2" type="line"/>
      <point x="217.795" y="33.400000000000006" type="line"/>
      <point x="217.795" y="-126.0" type="line"/>
      <point x="308.865" y="-126.0" type="line"/>
      <point x="308.865" y="23.6" type="line"/>
      <point x="290.005" y="36.2" type="line"/>
      <point x="290.005" y="469.2" type="line"/>
      <point x="308.865" y="483.8" type="line"/>
      <point x="308.865" y="623.0" type="line"/>
    </contour>
  </outline>
</glyph>
<glyph name="circumflex_hook" format="2">
  <advance width="385.4"/>
  <anchor x="184.8" y="559.0" name="_top"/>
  <outline>
    <contour>
      <point x="268.165" y="806.8" type="line"/>
      <point x="270.81" y="849.4"/>
      <point x="298.40999999999997" y="892.2"/>
      <point x="375.45" y="892.2" type="curve" smooth="yes"/>
      <point x="443.865" y="892.2"/>
      <point x="479.505" y="859.8"/>
      <point x="479.505" y="811.8" type="curve" smooth="yes"/>
      <point x="479.505" y="756.6"/>
      <point x="443.28999999999996" y="733.0"/>
      <point x="386.26" y="727.2" type="curve"/>
      <point x="408.755" y="753.4" type="line"/>
      <point x="408.755" y="703.2" type="line"/>
      <point x="331.21" y="703.2" type="line"/>
      <point x="331.21" y="764.4" type="line"/>
      <point x="371.185" y="767.4"/>
      <point x="386.525" y="781.6"/>
      <point x="386.525" y="807.8" type="curve"/>
      <point x="386.525" y="825.4"/>
      <point x="381.41999999999996" y="835.8"/>
      <point x="368.355" y="835.8" type="curve" smooth="yes"/>
      <point x="357.74" y="835.8"/>
      <point x="350.03499999999997" y="825.0"/>
      <point x="348.53999999999996" y="806.8" type="curve"/>
    </contour>
    <component base="circumflex" xOffset="-82.88"/>
  </outline>
</glyph>
<glyph name="eight.linprop" format="2">
  <advance width="522"/>
  <outline>
    <contour>
      <point x="261" y="-10" type="curve" smooth="yes"/>
      <point x="409" y="-10"/>
      <point x="502" y="63"/>
      <point x="502" y="188" type="curve" smooth="yes"/>
      <point x="502" y="284"/>
      <point x="451" y="354"/>
      <point x="344" y="387" type="curve"/>
      <point x="363" y="369" type="line"/>
      <point x="362" y="386" type="line"/>
      <point x="344" y="366" type="line"/>
      <point x="441" y="399"/>
      <point x="485" y="452"/>
      <point x="485" y="535" type="curve" smooth="yes"/>
      <point x="485" y="646"/>
      <point x="397" y="720"/>
      <point x="261" y="720" type="curve" smooth="yes"/>
      <point x="125" y="720"/>
      <point x="37" y="646"/>
      <point x="37" y="535" type="curve" smooth="yes"/>
      <point x="37" y="452"/>
      <point x="85" y="399"/>
      <point x="182" y="366" type="curve"/>
      <point x="167" y="386" type="line"/>
      <point x="166" y="367" type="line"/>
      <point x="182" y="387" type="line"/>
      <point x="75" y="354"/>
      <point x="20" y="284"/>
      <point x="20" y="188" type="curve" smooth="yes"/>
      <point x="20" y="63"/>
      <point x="113" y="-10"/>
    </contour>
    <contour>
      <point x="261" y="35" type="curve" smooth="yes"/>
      <point x="234" y="35"/>
      <point x="223" y="73"/>
      <point x="223" y="198" type="curve" smooth="yes"/>
      <point x="223" y="319"/>
      <point x="233" y="354"/>
      <point x="261" y="354" type="curve" smooth="yes"/>
      <point x="289" y="354"/>
      <point x="299" y="319"/>
      <point x="299" y="198" type="curve" smooth="yes"/>
      <point x="299" y="73"/>
      <point x="288" y="35"/>
    </contour>
    <contour>
      <point x="261" y="398" type="curve" smooth="yes"/>
      <point x="235" y="398"/>
      <point x="224" y="427"/>
      <point x="224" y="534" type="curve" smooth="yes"/>
      <point x="224" y="647"/>
      <point x="235" y="675"/>
      <point x="261" y="675" type="curve" smooth="yes"/>
      <point x="287" y="675"/>
      <point x="298" y="647"/>
      <point x="298" y="534" type="curve" smooth="yes"/>
      <point x="298" y="427"/>
      <point x="287" y="398"/>
    </contour>
  </outline>
</glyph>
<glyph name="eight.lintab" format="2">
  <advance width="400"/>
  <outline>
    <contour>
      <point x="200" y="-10" type="curve" smooth="yes"/>
      <point x="348" y="-10"/>
      <point x="441" y="63"/>
      <point x="441" y="188" type="curve" smooth="yes"/>
      <point x="441" y="284"/>
      <point x="390" y="354"/>
      <point x="283" y="387" type="curve"/>
      <point x="302" y="369" type="line"/>
      <point x="301" y="386" type="line"/>
      <point x="283" y="366" type="line"/>
      <point x="380" y="399"/>
      <point x="424" y="452"/>
      <point x="424" y="535" type="curve" smooth="yes"/>
      <point x="424" y="646"/>
      <point x="336" y="720"/>
      <point x="200" y="720" type="curve" smooth="yes"/>
      <point x="64" y="720"/>
      <point x="-24" y="646"/>
      <point x="-24" y="535" type="curve" smooth="yes"/>
      <point x="-24" y="452"/>
      <point x="24" y="399"/>
      <point x="121" y="366" type="curve"/>
      <point x="106" y="386" type="line"/>
      <point x="105" y="367" type="line"/>
      <point x="121" y="387" type="line"/>
      <point x="14" y="354"/>
      <point x="-41" y="284"/>
      <point x="-41" y="188" type="curve" smooth="yes"/>
      <point x="-41" y="63"/>
      <point x="52" y="-10"/>
    </contour>
    <contour>
      <point x="200" y="35" type="curve" smooth="yes"/>
      <point x="173" y="35"/>
      <point x="162" y="73"/>
      <point x="162" y="198" type="curve" smooth="yes"/>
      <point x="162" y="319"/>
      <point x="172" y="354"/>
      <point x="200" y="354" type="curve" smooth="yes"/>
      <point x="228" y="354"/>
      <point x="238" y="319"/>
      <point x="238" y="198" type="curve" smooth="yes"/>
      <point x="238" y="73"/>
      <point x="227" y="35"/>
    </contour>
    <contour>
      <point x="200" y="398" type="curve" smooth="yes"/>
      <point x="174" y="398"/>
      <point x="163" y="427"/>
      <point x="163" y="534" type="curve" smooth="yes"/>
      <point x="163" y="647"/>
      <point x="174" y="675"/>
      <point x="200" y="675" type="curve" smooth="yes"/>
      <point x="226" y="675"/>
      <point x="237" y="647"/>
      <point x="237" y="534" type="curve" smooth="yes"/>
      <point x="237" y="427"/>
      <point x="226" y="398"/>
    </contour>
  </outline>
</glyph>
<glyph name="f.alt.copy_1" format="2">
  <advance width="336"/>
  <outline>
    <contour>
      <point x="-3.150000000000002" y="522.8" type="line"/>
      <point x="-3.150000000000002" y="478.0" type="line"/>
      <point x="327.725" y="478.0" type="line"/>
      <point x="327.725" y="522.8" type="line"/>
    </contour>
    <contour>
      <point x="357.855" y="749.8" type="line"/>
      <point x="332.28999999999996" y="756.4"/>
      <point x="304.4747297297297" y="759.6"/>
      <point x="275.675" y="759.6" type="curve" smooth="yes"/>
      <point x="145.0060172413793" y="759.6"/>
      <point x="47.245" y="704.2"/>
      <point x="47.245" y="557.2" type="curve" smooth="yes"/>
      <point x="47.245" y="66.0" type="line" smooth="yes"/>
      <point x="47.245" y="44.2"/>
      <point x="38.010000000000005" y="37.2"/>
      <point x="20.31" y="37.2" type="curve" smooth="yes"/>
      <point x="10.420000000000002" y="37.2" type="line"/>
      <point x="10.420000000000002" y="0.0" type="line"/>
      <point x="296.34" y="0.0" type="line"/>
      <point x="296.34" y="37.2" type="line"/>
      <point x="287.945" y="37.2" type="line" smooth="yes"/>
      <point x="272.395" y="37.2"/>
      <point x="249.325" y="39.4"/>
      <point x="249.325" y="48.400000000000006" type="curve" smooth="yes"/>
      <point x="249.325" y="609.2" type="line" smooth="yes"/>
      <point x="249.325" y="679.8"/>
      <point x="269.1706875" y="711.2"/>
      <point x="304.81500000000005" y="711.2" type="curve" smooth="yes"/>
      <point x="329.3659090909091" y="711.2"/>
      <point x="351.2630326460154" y="701.735714926049"/>
      <point x="357.855" y="698.6" type="curve"/>
    </contour>
  </outline>
</glyph>
<glyph name="five.lin" format="2">
  <advance width="422.8"/>
  <outline>
    <contour>
      <point x="202.59" y="-10.2" type="curve" smooth="yes"/>
      <point x="91.325" y="-10.2"/>
      <point x="31.19" y="59.8"/>
      <point x="3.1400000000000006" y="151.0" type="curve"/>
      <point x="82.86999999999999" y="201.8" type="line"/>
      <point x="98.43" y="145.0"/>
      <point x="125.63" y="77.4"/>
      <point x="171.54" y="77.4" type="curve" smooth="yes"/>
      <point x="210.93" y="77.4"/>
      <point x="228.24" y="138.4"/>
      <point x="228.24" y="240.0" type="curve" smooth="yes"/>
      <point x="228.24" y="330.4"/>
      <point x="211.495" y="386.2"/>
      <point x="175.715" y="386.2" type="curve" smooth="yes"/>
      <point x="146.32" y="386.2"/>
      <point x="131.53" y="357.6"/>
      <point x="121.72999999999999" y="309.4" type="curve"/>
      <point x="43.105000000000004" y="309.4" type="line"/>
      <point x="43.105000000000004" y="710.0" type="line"/>
      <point x="371.83" y="710.0" type="line"/>
      <point x="361.40999999999997" y="565.6" type="line"/>
      <point x="108.195" y="565.6" type="line"/>
      <point x="128.58499999999998" y="690.0" type="line"/>
      <point x="128.58499999999998" y="376.6" type="line"/>
      <point x="125.18" y="360.6"/>
      <point x="114.9" y="358.4"/>
      <point x="106.4" y="367.4" type="curve"/>
      <point x="132.61" y="423.6"/>
      <point x="166.64" y="466.6"/>
      <point x="247.395" y="466.6" type="curve" smooth="yes"/>
      <point x="352.21000000000004" y="466.6"/>
      <point x="411.265" y="367.4"/>
      <point x="411.265" y="239.2" type="curve" smooth="yes"/>
      <point x="411.265" y="87.8"/>
      <point x="331.82" y="-10.2"/>
    </contour>
  </outline>
</glyph>
<glyph name="five.lintab" format="2">
  <advance width="400"/>
  <outline>
    <contour>
      <point x="181" y="-10" type="curve" smooth="yes"/>
      <point x="59" y="-10"/>
      <point x="10" y="58"/>
      <point x="-17" y="148" type="curve"/>
      <point x="19" y="175" type="line"/>
      <point x="37" y="100"/>
      <point x="73" y="46"/>
      <point x="131" y="46" type="curve" smooth="yes"/>
      <point x="187" y="46"/>
      <point x="215" y="96"/>
      <point x="215" y="234" type="curve" smooth="yes"/>
      <point x="215" y="352"/>
      <point x="187" y="399"/>
      <point x="141" y="399" type="curve" smooth="yes"/>
      <point x="104" y="399"/>
      <point x="74" y="369"/>
      <point x="61" y="310" type="curve"/>
      <point x="27" y="310" type="line"/>
      <point x="27" y="710" type="line"/>
      <point x="382" y="710" type="line"/>
      <point x="370" y="565" type="line"/>
      <point x="60" y="565" type="line"/>
      <point x="78" y="690" type="line"/>
      <point x="78" y="375" type="line"/>
      <point x="79" y="371"/>
      <point x="55" y="367"/>
      <point x="55" y="369" type="curve"/>
      <point x="80" y="425"/>
      <point x="141" y="467"/>
      <point x="223" y="467" type="curve" smooth="yes"/>
      <point x="337" y="467"/>
      <point x="413" y="381"/>
      <point x="413" y="239" type="curve" smooth="yes"/>
      <point x="413" y="77"/>
      <point x="317" y="-10"/>
    </contour>
  </outline>
</glyph>
<glyph name="five.old" format="2">
  <advance width="422.8"/>
  <outline>
    <contour>
      <point x="210.135" y="-151.0" type="curve" smooth="yes"/>
      <point x="98.915" y="-151.0"/>
      <point x="38.629999999999995" y="-81.0"/>
      <point x="10.685000000000002" y="10.2" type="curve"/>
      <point x="90.41499999999999" y="61.0" type="line"/>
      <point x="104.82499999999999" y="4.200000000000003"/>
      <point x="131.725" y="-64.19999999999999"/>
      <point x="177.935" y="-64.19999999999999" type="curve" smooth="yes"/>
      <point x="219.555" y="-64.19999999999999"/>
      <point x="236.02499999999998" y="-9.0"/>
      <point x="236.02499999999998" y="90.8" type="curve" smooth="yes"/>
      <point x="236.02499999999998" y="176.4"/>
      <point x="220.97000000000003" y="224.6"/>
      <point x="184.605" y="224.6" type="curve" smooth="yes"/>
      <point x="154.105" y="224.6"/>
      <point x="138.97" y="196.0"/>
      <point x="129.27499999999998" y="147.8" type="curve"/>
      <point x="50.545" y="147.8" type="line"/>
      <point x="50.545" y="548.0" type="line"/>
      <point x="377.315" y="548.0" type="line"/>
      <point x="367.195" y="403.6" type="line"/>
      <point x="124.72" y="403.6" type="line"/>
      <point x="136.025" y="528.0" type="line"/>
      <point x="136.025" y="215.0" type="line"/>
      <point x="132.725" y="199.0"/>
      <point x="121.535" y="196.8"/>
      <point x="113.945" y="205.8" type="curve"/>
      <point x="139.005" y="262.0"/>
      <point x="170.39" y="305.0"/>
      <point x="252.145" y="305.0" type="curve" smooth="yes"/>
      <point x="359.145" y="305.0"/>
      <point x="419.04999999999995" y="211.0"/>
      <point x="419.04999999999995" y="90.0" type="curve" smooth="yes"/>
      <point x="419.04999999999995" y="-56.4"/>
      <point x="340.25" y="-151.0"/>
    </contour>
  </outline>
</glyph>
<glyph name="florin.proportional" format="2">
  <advance width="390"/>
  <outline>
    <contour>
      <point x="26.315000000000005" y="506.0" type="line"/>
      <point x="20.025000000000006" y="423.6" type="line"/>
      <point x="358.03" y="423.6" type="line"/>
      <point x="364.425" y="506.0" type="line"/>
    </contour>
    <contour>
      <point x="228.845" y="80.4" type="curve" smooth="yes"/>
      <point x="280.85" y="561.2" type="line" smooth="yes"/>
      <point x="286.21" y="632.8"/>
      <point x="310.16499999999996" y="653.4"/>
      <point x="336.72" y="653.4" type="curve" smooth="yes"/>
      <point x="358.33" y="653.4"/>
      <point x="372.095" y="645.8"/>
      <point x="383.665" y="638.6" type="curve"/>
      <point x="389.76" y="725.6" type="line"/>
      <point x="370.405" y="737.6"/>
      <point x="341.01" y="746.2"/>
      <point x="292.1" y="746.2" type="curve" smooth="yes"/>
      <point x="180.8" y="746.2"/>
      <point x="116.57000000000001" y="683.6"/>
      <point x="101.23000000000002" y="550.4" type="curve" smooth="yes"/>
      <point x="50.57000000000001" y="66.4" type="line" smooth="yes"/>
      <point x="31.064999999999998" y="-117.4"/>
      <point x="4.660000000000004" y="-144.8"/>
      <point x="-22.09" y="-144.8" type="curve" smooth="yes"/>
      <point x="-43.01" y="-144.8"/>
      <point x="-61.56" y="-131.4"/>
      <point x="-72.405" y="-126.8" type="curve"/>
      <point x="-76.19999999999999" y="-216.2" type="line"/>
      <point x="-63.894999999999996" y="-225.8"/>
      <point x="-34.315" y="-236.0"/>
      <point x="1.415000000000001" y="-236.0" type="curve" smooth="yes"/>
      <point x="114.97" y="-236.0"/>
      <point x="201.40499999999997" y="-152.6"/>
    </contour>
  </outline>
</glyph>
<glyph name="four.linprop" format="2">
  <advance width="445"/>
  <outline>
    <contour>
      <point x="5" y="168" type="line"/>
      <point x="430" y="168" type="line"/>
      <point x="430" y="292" type="line"/>
      <point x="45" y="292" type="line"/>
      <point x="45" y="254" type="line"/>
      <point x="250" y="683" type="line"/>
      <point x="245" y="710" type="line"/>
      <point x="219" y="710" type="line"/>
      <point x="5" y="263" type="line"/>
    </contour>
    <contour>
      <point x="187" y="78" type="line" smooth="yes"/>
      <point x="187" y="47"/>
      <point x="178" y="40"/>
      <point x="156" y="40" type="curve" smooth="yes"/>
      <point x="136" y="40" type="line"/>
      <point x="136" y="0" type="line"/>
      <point x="421" y="0" type="line"/>
      <point x="421" y="40" type="line"/>
      <point x="411" y="40" type="line" smooth="yes"/>
      <point x="386" y="40"/>
      <point x="381" y="47"/>
      <point x="381" y="78" type="curve" smooth="yes"/>
      <point x="381" y="710" type="line"/>
      <point x="229" y="710" type="line"/>
      <point x="187" y="601" type="line"/>
    </contour>
  </outline>
</glyph>
<glyph name="franc.proportional" format="2">
  <advance width="472"/>
  <outline>
    <contour>
      <point x="278.8" y="629.4" type="line"/>
      <point x="299.63" y="629.4" type="line" smooth="yes"/>
      <point x="332.545" y="629.4"/>
      <point x="358.64" y="621.0"/>
      <point x="360.4" y="583.8" type="curve" smooth="yes"/>
      <point x="363.77" y="505.6" type="line"/>
      <point x="452.24" y="505.6" type="line"/>
      <point x="452.24" y="710.0" type="line"/>
      <point x="36.019999999999996" y="710.0" type="line"/>
      <point x="36.019999999999996" y="638.4" type="line"/>
      <point x="44.415" y="638.4" type="line" smooth="yes"/>
      <point x="61.09" y="638.4"/>
      <point x="72.73" y="631.4"/>
      <point x="72.73" y="602.4" type="curve" smooth="yes"/>
      <point x="72.73" y="107.6" type="line" smooth="yes"/>
      <point x="72.73" y="78.6"/>
      <point x="61.045" y="71.6"/>
      <point x="44.415" y="71.6" type="curve" smooth="yes"/>
      <point x="36.019999999999996" y="71.6" type="line"/>
      <point x="36.019999999999996" y="0.0" type="line"/>
      <point x="330.955" y="0.0" type="line"/>
      <point x="330.955" y="71.6" type="line"/>
      <point x="318.305" y="71.6" type="line" smooth="yes"/>
      <point x="301.135" y="71.6"/>
      <point x="278.8" y="73.0"/>
      <point x="278.8" y="105.6" type="curve" smooth="yes"/>
    </contour>
    <contour>
      <point x="256.83500000000004" y="421.4" type="curve"/>
      <point x="256.83500000000004" y="352.2" type="line"/>
      <point x="244.97" y="351.8"/>
      <point x="396.335" y="340.0"/>
      <point x="389.0" y="336.4" type="curve"/>
      <point x="389.0" y="436.8" type="line"/>
      <point x="396.335" y="433.6"/>
      <point x="244.97" y="421.8"/>
    </contour>
    <contour>
      <point x="36.019999999999996" y="249.6" type="line"/>
      <point x="36.019999999999996" y="176.0" type="line"/>
      <point x="350.99" y="176.0" type="line"/>
      <point x="350.99" y="249.6" type="line"/>
    </contour>
  </outline>
</glyph>
<glyph name="g.alt" format="2">
  <advance width="516"/>
  <outline>
    <contour>
      <point x="289" y="-57" type="line" smooth="yes"/>
      <point x="289" y="-150"/>
      <point x="270" y="-186"/>
      <point x="217" y="-186" type="curve" smooth="yes"/>
      <point x="186" y="-186"/>
      <point x="173" y="-174"/>
      <point x="160" y="-157" type="curve"/>
      <point x="151" y="-177"/>
      <point x="169" y="-193"/>
      <point x="186" y="-194" type="curve"/>
      <point x="186" y="-51" type="line"/>
      <point x="36" y="-51" type="line"/>
      <point x="36" y="-171" type="line"/>
      <point x="68" y="-208"/>
      <point x="121" y="-234"/>
      <point x="216" y="-234" type="curve" smooth="yes"/>
      <point x="370" y="-234"/>
      <point x="493" y="-165"/>
      <point x="493" y="-5" type="curve" smooth="yes"/>
      <point x="493" y="524" type="line"/>
      <point x="355" y="524" type="line"/>
      <point x="297" y="445" type="line"/>
      <point x="289" y="445" type="line"/>
    </contour>
    <contour>
      <point x="221" y="262" type="curve" smooth="yes"/>
      <point x="221" y="431"/>
      <point x="235" y="450"/>
      <point x="257" y="450" type="curve" smooth="yes"/>
      <point x="287" y="450"/>
      <point x="295" y="412"/>
      <point x="306" y="365" type="curve"/>
      <point x="316" y="444" type="line"/>
      <point x="295" y="494"/>
      <point x="260" y="533"/>
      <point x="188" y="533" type="curve" smooth="yes"/>
      <point x="90" y="533"/>
      <point x="15" y="461"/>
      <point x="15" y="262" type="curve" smooth="yes"/>
      <point x="15" y="62"/>
      <point x="90" y="-10"/>
      <point x="188" y="-10" type="curve" smooth="yes"/>
      <point x="260" y="-10"/>
      <point x="285" y="29"/>
      <point x="306" y="79" type="curve"/>
      <point x="306" y="158" type="line"/>
      <point x="295" y="111"/>
      <point x="287" y="73"/>
      <point x="257" y="73" type="curve" smooth="yes"/>
      <point x="235" y="73"/>
      <point x="221" y="92"/>
    </contour>
  </outline>
</glyph>
<glyph name="heart" format="2">
  <advance width="680.5"/>
  <outline>
    <contour>
      <point x="331.2" y="-10.0" type="line"/>
      <point x="152.3" y="273.0" type="line" smooth="yes"/>
      <point x="88.3" y="375.0"/>
      <point x="53.2" y="437.0"/>
      <point x="53.2" y="535.0" type="curve" smooth="yes"/>
      <point x="53.2" y="632.0"/>
      <point x="102.4" y="710.0"/>
      <point x="190.4" y="710.0" type="curve" smooth="yes"/>
      <point x="305.3" y="710.0"/>
      <point x="368.3" y="567.0"/>
      <point x="368.3" y="363.0" type="curve"/>
      <point x="311.5" y="363.0" type="line"/>
      <point x="311.5" y="567.0"/>
      <point x="375.2" y="710.0"/>
      <point x="490.1" y="710.0" type="curve" smooth="yes"/>
      <point x="577.4" y="710.0"/>
      <point x="627.3" y="632.0"/>
      <point x="627.3" y="535.0" type="curve" smooth="yes"/>
      <point x="627.3" y="437.0"/>
      <point x="592.2" y="375.0"/>
      <point x="527.5" y="273.0" type="curve" smooth="yes"/>
      <point x="348.6" y="-10.0" type="line"/>
    </contour>
  </outline>
</glyph>
<glyph name="heartsuitwhite" format="2">
  <advance width="681"/>
  <outline>
    <contour>
      <point x="336.8" y="495.0" type="curve"/>
      <point x="344.0" y="495.0" type="line"/>
      <point x="368.0" y="584.0"/>
      <point x="413.6" y="671.0"/>
      <point x="486.8" y="671.0" type="curve" smooth="yes"/>
      <point x="555.4" y="671.0"/>
      <point x="594.8" y="613.0713286713287"/>
      <point x="594.8" y="531.0" type="curve" smooth="yes"/>
      <point x="594.8" y="447.98189655172416"/>
      <point x="561.1033797757386" y="389.13911973246013"/>
      <point x="501.9" y="296.0" type="curve" smooth="yes"/>
      <point x="329.9" y="24.0" type="line"/>
      <point x="350.6" y="24.0" type="line"/>
      <point x="177.9" y="296.0" type="line" smooth="yes"/>
      <point x="119.7517817773133" y="388.01541823057363"/>
      <point x="85.0" y="447.98189655172416"/>
      <point x="85.0" y="531.0" type="curve" smooth="yes"/>
      <point x="85.0" y="613.0713286713287"/>
      <point x="124.4" y="671.0"/>
      <point x="193.0" y="671.0" type="curve" smooth="yes"/>
      <point x="264.9" y="671.0"/>
      <point x="312.5" y="584.0"/>
    </contour>
    <contour>
      <point x="348.6" y="-10.0" type="line"/>
      <point x="527.5" y="273.0" type="line" smooth="yes"/>
      <point x="592.2" y="375.0"/>
      <point x="627.3" y="437.0"/>
      <point x="627.3" y="535.0" type="curve" smooth="yes"/>
      <point x="627.3" y="632.0"/>
      <point x="577.4" y="710.0"/>
      <point x="490.1" y="710.0" type="curve" smooth="yes"/>
      <point x="419.5" y="710.0"/>
      <point x="369.3" y="657.0"/>
      <point x="340.4" y="569.0" type="curve"/>
      <point x="311.2" y="657.0"/>
      <point x="260.3" y="710.0"/>
      <point x="190.4" y="710.0" type="curve" smooth="yes"/>
      <point x="102.4" y="710.0"/>
      <point x="53.2" y="632.0"/>
      <point x="53.2" y="535.0" type="curve" smooth="yes"/>
      <point x="53.2" y="437.0"/>
      <point x="88.3" y="375.0"/>
      <point x="152.3" y="273.0" type="curve" smooth="yes"/>
      <point x="331.2" y="-10.0" type="line"/>
    </contour>
  </outline>
</glyph>
<glyph name="minus.sub" format="2">
  <advance width="310.28"/>
  <outline>
    <contour>
      <point x="268.74" y="121.6" type="line"/>
      <point x="42.345" y="121.6" type="line"/>
      <point x="42.345" y="38.4" type="line"/>
      <point x="268.74" y="38.4" type="line"/>
    </contour>
  </outline>
</glyph>
<glyph name="nine.midprop" format="2">
  <advance width="381"/>
  <outline>
    <contour>
      <point x="64" y="-71" type="line"/>
      <point x="194" y="-17"/>
      <point x="276" y="137"/>
      <point x="276" y="375" type="curve" smooth="yes"/>
      <point x="276" y="540"/>
      <point x="241" y="589"/>
      <point x="191" y="589" type="curve" smooth="yes"/>
      <point x="129" y="589"/>
      <point x="100" y="517"/>
      <point x="100" y="388" type="curve" smooth="yes"/>
      <point x="100" y="280"/>
      <point x="119" y="212"/>
      <point x="180" y="212" type="curve" smooth="yes"/>
      <point x="223" y="212"/>
      <point x="260" y="244"/>
      <point x="280" y="344" type="curve"/>
      <point x="279" y="334"/>
      <point x="288" y="323"/>
      <point x="290" y="317" type="curve"/>
      <point x="273" y="222"/>
      <point x="229" y="178"/>
      <point x="160" y="178" type="curve" smooth="yes"/>
      <point x="73" y="178"/>
      <point x="20" y="255"/>
      <point x="20" y="383" type="curve" smooth="yes"/>
      <point x="20" y="525"/>
      <point x="86" y="619"/>
      <point x="191" y="619" type="curve" smooth="yes"/>
      <point x="277" y="619"/>
      <point x="356" y="545"/>
      <point x="356" y="355" type="curve" smooth="yes"/>
      <point x="356" y="129"/>
      <point x="243" y="-35"/>
      <point x="71" y="-93" type="curve"/>
    </contour>
  </outline>
</glyph>
<glyph name="one.lintab" format="2">
  <advance width="400"/>
  <outline>
    <contour>
      <point x="311" y="78" type="curve" smooth="yes"/>
      <point x="311" y="710" type="line"/>
      <point x="185" y="710" type="line"/>
      <point x="136" y="650"/>
      <point x="109" y="624"/>
      <point x="10" y="624" type="curve"/>
      <point x="10" y="510" type="line"/>
      <point x="62" y="521"/>
      <point x="95" y="560"/>
      <point x="121" y="631" type="curve"/>
      <point x="122" y="630"/>
      <point x="106" y="631"/>
      <point x="107" y="629" type="curve"/>
      <point x="107" y="78" type="line" smooth="yes"/>
      <point x="107" y="47"/>
      <point x="68" y="40"/>
      <point x="26" y="40" type="curve" smooth="yes"/>
      <point x="6" y="40" type="line"/>
      <point x="6" y="0" type="line"/>
      <point x="401" y="0" type="line"/>
      <point x="401" y="40" type="line"/>
      <point x="391" y="40" type="line" smooth="yes"/>
      <point x="346" y="40"/>
      <point x="311" y="47"/>
    </contour>
  </outline>
</glyph>
<glyph name="seven.linprop" format="2">
  <advance width="446"/>
  <outline>
    <contour>
      <point x="146" y="571" type="line" smooth="yes"/>
      <point x="104" y="571"/>
      <point x="95" y="559"/>
      <point x="87" y="519" type="curve" smooth="yes"/>
      <point x="71" y="442" type="line"/>
      <point x="35" y="442" type="line"/>
      <point x="35" y="710" type="line"/>
      <point x="416" y="710" type="line"/>
      <point x="416" y="620" type="line"/>
      <point x="333" y="469"/>
      <point x="290" y="278"/>
      <point x="273" y="0" type="curve"/>
      <point x="93" y="0" type="line"/>
      <point x="146" y="280"/>
      <point x="298" y="528"/>
      <point x="368" y="592" type="curve"/>
      <point x="367" y="571" type="line"/>
    </contour>
  </outline>
</glyph>
<glyph name="seven.lintab" format="2">
  <advance width="400"/>
  <outline>
    <contour>
      <point x="123" y="571" type="line" smooth="yes"/>
      <point x="81" y="571"/>
      <point x="72" y="559"/>
      <point x="64" y="519" type="curve" smooth="yes"/>
      <point x="48" y="442" type="line"/>
      <point x="12" y="442" type="line"/>
      <point x="12" y="710" type="line"/>
      <point x="393" y="710" type="line"/>
      <point x="393" y="620" type="line"/>
      <point x="310" y="469"/>
      <point x="267" y="278"/>
      <point x="250" y="0" type="curve"/>
      <point x="70" y="0" type="line"/>
      <point x="123" y="280"/>
      <point x="275" y="528"/>
      <point x="345" y="592" type="curve"/>
      <point x="344" y="571" type="line"/>
    </contour>
  </outline>
</glyph>
<glyph name="seven.oldtab" format="2">
  <advance width="400"/>
  <outline>
    <contour>
      <point x="139" y="470" type="line" smooth="yes"/>
      <point x="97" y="470"/>
      <point x="88" y="458"/>
      <point x="80" y="418" type="curve" smooth="yes"/>
      <point x="64" y="341" type="line"/>
      <point x="28" y="341" type="line"/>
      <point x="28" y="609" type="line"/>
      <point x="399" y="609" type="line"/>
      <point x="399" y="519" type="line"/>
      <point x="316" y="368"/>
      <point x="275" y="201"/>
      <point x="278" y="-77" type="curve"/>
      <point x="98" y="-77" type="line"/>
      <point x="131" y="203"/>
      <point x="281" y="427"/>
      <point x="351" y="491" type="curve"/>
      <point x="350" y="470" type="line"/>
    </contour>
  </outline>
</glyph>
<glyph name="six.oldprop" format="2">
  <advance width="423"/>
  <outline>
    <contour>
      <point x="370.03499999999997" y="663.0" type="line"/>
      <point x="264.46" y="626.8"/>
      <point x="193.21499999999997" y="494.8"/>
      <point x="193.21499999999997" y="287.0" type="curve" smooth="yes"/>
      <point x="193.21499999999997" y="117.6"/>
      <point x="198.0" y="68.0"/>
      <point x="211.815" y="68.0" type="curve" smooth="yes"/>
      <point x="224.72" y="68.0"/>
      <point x="226.445" y="120.8"/>
      <point x="226.445" y="229.0" type="curve" smooth="yes"/>
      <point x="226.445" y="317.0"/>
      <point x="226.79" y="374.6"/>
      <point x="205.34" y="374.6" type="curve" smooth="yes"/>
      <point x="189.90499999999997" y="374.6"/>
      <point x="177.92000000000002" y="335.8"/>
      <point x="163.85500000000002" y="285.8" type="curve"/>
      <point x="163.70499999999998" y="288.0"/>
      <point x="159.79500000000002" y="349.8"/>
      <point x="160.14" y="351.0" type="curve"/>
      <point x="171.365" y="399.2"/>
      <point x="197.575" y="453.0"/>
      <point x="262.61" y="453.0" type="curve" smooth="yes"/>
      <point x="353.705" y="453.0"/>
      <point x="413.41499999999996" y="376.2"/>
      <point x="413.41499999999996" y="236.2" type="curve" smooth="yes"/>
      <point x="413.41499999999996" y="82.2"/>
      <point x="336.57" y="-10.0"/>
      <point x="217.105" y="-10.0" type="curve" smooth="yes"/>
      <point x="89.945" y="-10.0"/>
      <point x="8.695" y="84.0"/>
      <point x="8.695" y="295.0" type="curve" smooth="yes"/>
      <point x="8.695" y="513.0"/>
      <point x="150.655" y="697.2"/>
      <point x="358.5" y="740.0" type="curve"/>
    </contour>
  </outline>
</glyph>
<glyph name="sterling.alt" format="2">
  <advance width="423"/>
  <outline>
    <contour>
      <point x="12.720000000000002" y="0.0" type="line"/>
      <point x="403.33" y="0.0" type="line"/>
      <point x="403.33" y="251.2" type="line"/>
      <point x="326.98" y="251.2" type="line"/>
      <point x="321.16" y="188.6" type="line" smooth="yes"/>
      <point x="316.86" y="150.8"/>
      <point x="297.55" y="142.4"/>
      <point x="240.82999999999998" y="142.4" type="curve" smooth="yes"/>
      <point x="177.195" y="142.4" type="line"/>
      <point x="108.00999999999999" y="85.0" type="line"/>
      <point x="223.265" y="123.60000000000001"/>
      <point x="243.875" y="194.4"/>
      <point x="243.875" y="272.6" type="curve" smooth="yes"/>
      <point x="243.875" y="376.6"/>
      <point x="213.79" y="456.2"/>
      <point x="213.79" y="541.8" type="curve" smooth="yes"/>
      <point x="213.79" y="600.4154716981"/>
      <point x="220.61" y="634.0"/>
      <point x="240.715" y="634.0" type="curve" smooth="yes"/>
      <point x="250.25" y="634.0"/>
      <point x="257.99" y="621.8"/>
      <point x="265.57" y="599.6" type="curve"/>
      <point x="291.26" y="607.2"/>
      <point x="286.96" y="636.8"/>
      <point x="251.585" y="637.2" type="curve"/>
      <point x="251.585" y="528.6" type="line"/>
      <point x="388.39" y="528.6" type="line"/>
      <point x="388.39" y="662.4" type="line"/>
      <point x="371.635" y="683.6"/>
      <point x="328.17499999999995" y="720.0"/>
      <point x="229.375" y="720.0" type="curve"/>
      <point x="100.17000000000002" y="720.0"/>
      <point x="32.260000000000005" y="633.6113846154"/>
      <point x="32.260000000000005" y="527.8" type="curve" smooth="yes"/>
      <point x="32.260000000000005" y="400.2"/>
      <point x="99.87" y="344.0"/>
      <point x="99.87" y="238.2" type="curve" smooth="yes"/>
      <point x="99.87" y="174.4"/>
      <point x="71.9" y="134.0"/>
      <point x="12.720000000000002" y="113.2" type="curve"/>
    </contour>
    <contour>
      <point x="13.330000000000002" y="406.2" type="line"/>
      <point x="13.330000000000002" y="310.2" type="line"/>
      <point x="340.33" y="310.2" type="line"/>
      <point x="340.33" y="406.2" type="line"/>
    </contour>
  </outline>
</glyph>
<glyph name="three.old" format="2">
  <advance width="422.8"/>
  <outline>
    <contour>
      <point x="173.91" y="-64.0" type="curve" smooth="yes"/>
      <point x="214.725" y="-64.0"/>
      <point x="235.07" y="-20.39999999999999"/>
      <point x="235.07" y="60.8" type="curve" smooth="yes"/>
      <point x="235.07" y="131.8"/>
      <point x="226.065" y="184.2"/>
      <point x="156.51" y="184.2" type="curve" smooth="yes"/>
      <point x="126.965" y="184.2" type="line"/>
      <point x="126.965" y="263.0" type="line"/>
      <point x="148.115" y="263.0" type="line" smooth="yes"/>
      <point x="208.745" y="263.0"/>
      <point x="228.895" y="301.6"/>
      <point x="228.895" y="388.0" type="curve" smooth="yes"/>
      <point x="228.895" y="448.0"/>
      <point x="216.645" y="475.4"/>
      <point x="197.3" y="475.4" type="curve" smooth="yes"/>
      <point x="179.22" y="475.4"/>
      <point x="168.52499999999998" y="454.4"/>
      <point x="158.105" y="428.6" type="curve"/>
      <point x="153.96499999999997" y="436.4"/>
      <point x="154.69" y="481.6"/>
      <point x="179.875" y="484.8" type="curve"/>
      <point x="179.875" y="367.2" type="line"/>
      <point x="40.32" y="367.2" type="line"/>
      <point x="40.32" y="483.8" type="line"/>
      <point x="74.545" y="521.2"/>
      <point x="133.945" y="558.0"/>
      <point x="218.875" y="558.0" type="curve" smooth="yes"/>
      <point x="320.515" y="558.0"/>
      <point x="406.975" y="506.2"/>
      <point x="406.975" y="391.2" type="curve" smooth="yes"/>
      <point x="406.975" y="271.6"/>
      <point x="295.835" y="217.0"/>
      <point x="156.85500000000002" y="217.0" type="curve"/>
      <point x="170.655" y="235.0" type="line"/>
      <point x="346.99" y="235.0"/>
      <point x="419.245" y="165.4"/>
      <point x="419.245" y="53.6" type="curve"/>
      <point x="419.245" y="-79.0"/>
      <point x="325.575" y="-150.0"/>
      <point x="209.64" y="-150.0" type="curve" smooth="yes"/>
      <point x="93.43" y="-150.0"/>
      <point x="34.915000000000006" y="-79.2"/>
      <point x="18.7" y="6.0" type="curve"/>
      <point x="93.485" y="55.2" type="line"/>
      <point x="103.41" y="9.200000000000003"/>
      <point x="124.87" y="-64.0"/>
    </contour>
  </outline>
</glyph>
<glyph name="uni20B8.proportional" format="2">
  <advance width="503"/>
  <outline>
    <contour>
      <point x="18.585" y="710.0" type="line"/>
      <point x="18.585" y="629.2" type="line"/>
      <point x="485.325" y="629.2" type="line"/>
      <point x="485.325" y="710.0" type="line"/>
    </contour>
    <contour>
      <point x="18.585" y="553.2" type="line"/>
      <point x="18.585" y="323.6" type="line"/>
      <point x="96.82" y="323.6" type="line"/>
      <point x="99.995" y="422.6" type="line" smooth="yes"/>
      <point x="100.605" y="462.2"/>
      <point x="125.1" y="472.4"/>
      <point x="155.37" y="472.4" type="curve" smooth="yes"/>
      <point x="160.42000000000002" y="472.4" type="line"/>
      <point x="160.42000000000002" y="107.6" type="line" smooth="yes"/>
      <point x="160.42000000000002" y="78.6"/>
      <point x="150.035" y="71.6"/>
      <point x="132.45" y="71.6" type="curve" smooth="yes"/>
      <point x="122.145" y="71.6" type="line"/>
      <point x="122.145" y="0.0" type="line"/>
      <point x="380.96" y="0.0" type="line"/>
      <point x="380.96" y="71.6" type="line"/>
      <point x="370.655" y="71.6" type="line" smooth="yes"/>
      <point x="353.98" y="71.6"/>
      <point x="343.595" y="78.6"/>
      <point x="343.595" y="107.6" type="curve" smooth="yes"/>
      <point x="343.595" y="472.4" type="line"/>
      <point x="347.735" y="472.4" type="line" smooth="yes"/>
      <point x="378.005" y="472.4"/>
      <point x="402.605" y="462.2"/>
      <point x="404.02" y="422.6" type="curve" smooth="yes"/>
      <point x="407.09" y="323.6" type="line"/>
      <point x="485.325" y="323.6" type="line"/>
      <point x="485.325" y="553.2" type="line"/>
    </contour>
  </outline>
</glyph>
<glyph name="whitediamond" format="2">
  <advance width="469"/>
  <outline>
    <contour>
      <point x="234.7" y="52.0" type="line"/>
      <point x="432.0" y="313.0" type="line"/>
      <point x="234.7" y="574.0" type="line"/>
      <point x="37.4" y="313.0" type="line"/>
    </contour>
    <contour>
      <point x="234.7" y="106.0" type="line"/>
      <point x="78.8" y="313.0" type="line"/>
      <point x="234.7" y="520.0" type="line"/>
      <point x="391.3" y="313.0" type="line"/>
    </contour>
  </outline>
</glyph>
<glyph name="whitedownpointingtriangle" format="2">
  <advance width="487"/>
  <outline>
    <contour>
      <point x="41.7" y="464.0" type="line"/>
      <point x="242.9" y="91.0" type="line"/>
      <point x="445.8" y="464.0" type="line"/>
    </contour>
    <contour>
      <point x="246.2" y="155.0" type="line"/>
      <point x="97.5" y="431.0" type="line"/>
      <point x="94.2" y="426.0" type="line"/>
      <point x="391.6" y="426.0" type="line"/>
      <point x="389.0" y="431.0" type="line"/>
      <point x="240.6" y="155.0" type="line"/>
    </contour>
  </outline>
</glyph>
<glyph name="zero.linprop" format="2">
  <advance width="423"/>
  <outline>
    <contour>
      <point x="211.4" y="-11.0" type="curve" smooth="yes"/>
      <point x="331.559981617505" y="-11.0"/>
      <point x="417.555" y="126.0"/>
      <point x="417.555" y="354.0" type="curve" smooth="yes"/>
      <point x="417.555" y="583.8"/>
      <point x="331.559981617505" y="720.0"/>
      <point x="211.4" y="720.0" type="curve" smooth="yes"/>
      <point x="91.240018382495" y="720.0"/>
      <point x="5.2450000000000045" y="583.8"/>
      <point x="5.2450000000000045" y="354.0" type="curve" smooth="yes"/>
      <point x="5.2450000000000045" y="126.0"/>
      <point x="91.240018382495" y="-11.0"/>
    </contour>
    <contour>
      <point x="211.4" y="71.0" type="curve" smooth="yes"/>
      <point x="195.666" y="71.0"/>
      <point x="194.51499999999996" y="127.8"/>
      <point x="194.51499999999996" y="354.0" type="curve" smooth="yes"/>
      <point x="194.51499999999996" y="583.4"/>
      <point x="195.666" y="638.0"/>
      <point x="211.4" y="638.0" type="curve" smooth="yes"/>
      <point x="228.215" y="638.0"/>
      <point x="228.28500000000003" y="583.4"/>
      <point x="228.28500000000003" y="354.0" type="curve" smooth="yes"/>
      <point x="228.28500000000003" y="127.8"/>
      <point x="227.13400000000001" y="71.0"/>
    </contour>
  </outline>
</glyph>
<glyph name="zero.oldtab" format="2">
  <advance width="400"/>
  <outline>
    <contour>
      <point x="200" y="619" type="curve"/>
      <point x="80" y="619"/>
      <point x="5" y="514"/>
      <point x="5" y="304" type="curve" smooth="yes"/>
      <point x="5" y="94"/>
      <point x="80" y="-10"/>
      <point x="200" y="-10" type="curve"/>
      <point x="320" y="-10"/>
      <point x="395" y="94"/>
      <point x="395" y="304" type="curve" smooth="yes"/>
      <point x="395" y="514"/>
      <point x="320" y="619"/>
    </contour>
    <contour>
      <point x="200" y="35" type="curve"/>
      <point x="187" y="35"/>
      <point x="185" y="42"/>
      <point x="185" y="304" type="curve" smooth="yes"/>
      <point x="185" y="566"/>
      <point x="187" y="574"/>
      <point x="200" y="574" type="curve"/>
      <point x="213" y="574"/>
      <point x="215" y="566"/>
      <point x="215" y="304" type="curve" smooth="yes"/>
      <point x="215" y="42"/>
      <point x="213" y="35"/>
    </contour>
  </outline>
</glyph>
<glyph name="zero.slashlin" format="2">
  <advance width="422.8"/>
  <outline>
    <contour>
      <point x="294.90500000000003" y="523.0" type="line"/>
      <point x="130.7" y="279.6" type="line"/>
      <point x="127.74499999999999" y="185.0" type="line"/>
      <point x="292.295" y="427.8" type="line"/>
    </contour>
    <contour>
      <point x="211.4" y="-11.0" type="curve" smooth="yes"/>
      <point x="331.475" y="-11.0"/>
      <point x="417.555" y="126.0"/>
      <point x="417.555" y="354.0" type="curve" smooth="yes"/>
      <point x="417.555" y="583.8"/>
      <point x="331.475" y="720.0"/>
      <point x="211.4" y="720.0" type="curve" smooth="yes"/>
      <point x="91.325" y="720.0"/>
      <point x="5.2450000000000045" y="583.8"/>
      <point x="5.2450000000000045" y="354.0" type="curve" smooth="yes"/>
      <point x="5.2450000000000045" y="126.0"/>
      <point x="91.325" y="-11.0"/>
    </contour>
    <contour>
      <point x="211.4" y="71.0" type="curve" smooth="yes"/>
      <point x="188.9676923076923" y="71.0"/>
      <point x="185.42999999999995" y="127.8"/>
      <point x="185.42999999999995" y="354.0" type="curve" smooth="yes"/>
      <point x="185.42999999999995" y="583.4"/>
      <point x="188.9676923076923" y="638.0"/>
      <point x="211.4" y="638.0" type="curve" smooth="yes"/>
      <point x="235.07076923076923" y="638.0"/>
      <point x="237.37" y="583.4"/>
      <point x="237.37" y="354.0" type="curve" smooth="yes"/>
      <point x="237.37" y="127.8"/>
      <point x="233.8323076923077" y="71.0"/>
    </contour>
  </outline>
</glyph>
<glyph name="zero.slashmidprop" format="2">
  <advance width="384"/>
  <outline>
    <contour>
      <point x="192" y="-10" type="curve" smooth="yes"/>
      <point x="286" y="-10"/>
      <point x="359" y="93"/>
      <point x="359" y="305" type="curve" smooth="yes"/>
      <point x="359" y="516"/>
      <point x="286" y="619"/>
      <point x="192" y="619" type="curve" smooth="yes"/>
      <point x="98" y="619"/>
      <point x="25" y="516"/>
      <point x="25" y="305" type="curve" smooth="yes"/>
      <point x="25" y="93"/>
      <point x="98" y="-10"/>
    </contour>
    <contour>
      <point x="192" y="20" type="curve" smooth="yes"/>
      <point x="135" y="20"/>
      <point x="107" y="104"/>
      <point x="107" y="305" type="curve" smooth="yes"/>
      <point x="107" y="505"/>
      <point x="135" y="589"/>
      <point x="192" y="589" type="curve" smooth="yes"/>
      <point x="249" y="589"/>
      <point x="277" y="505"/>
      <point x="277" y="305" type="curve" smooth="yes"/>
      <point x="277" y="104"/>
      <point x="249" y="20"/>
    </contour>
    <contour>
      <point x="98" y="140" type="line"/>
      <point x="308" y="447" type="line"/>
      <point x="288" y="470" type="line"/>
      <point x="76" y="163" type="line"/>
    </contour>
  </outline>
</glyph>
